<svg height="480pt" viewBox="0 0 480 480.0156" width="480pt" xmlns="http://www.w3.org/2000/svg"><g fill="#f15a29"><path d="m240.042969 8.011719c-84.605469-.023438-162.507813 46.027343-203.28125 120.160156 17.925781.511719 35.808593 2.070313 53.550781 4.664063l.050781-.105469c35.28125-67.816407 101.777344-113.835938 177.679688-122.960938-75.902344 9.125-142.398438 55.144531-177.679688 122.960938l-.050781.105469c11.5625 1.65625 23.015625 3.625 34.289062 6.136718 18.035157 3.945313 35.804688 9.023438 53.199219 15.199219 2.570313-5.28125 6.003907-10.09375 10.160157-14.242187 43.761718-43.679688 152.640624-5.679688 243.28125 84.882812 13.871093 13.898438 26.875 28.640625 38.9375 44.136719 8.433593-66.070313-11.984376-132.574219-56.042969-182.527344-44.058594-49.957031-107.488281-78.523437-174.09375-78.410156zm0 0"/><path d="m187.960938 139.929688c-4.15625 4.148437-7.589844 8.960937-10.160157 14.242187 108.519531 38.230469 199.023438 115.308594 254.050781 216.351563 20.679688-30.332032 33.820313-65.164063 38.328126-101.601563-12.066407-15.484375-25.066407-30.21875-38.9375-44.109375-90.640626-90.5625-199.519532-128.5625-243.28125-84.882812zm0 0"/><path d="m177.800781 154.171875c-25.757812 50.078125 13.121094 147.039063 95.042969 229.039063 23.085938 23.273437 48.667969 43.929687 76.277344 61.601562 33.164062-17.714844 61.546875-43.195312 82.730468-74.257812-55.019531-101.054688-145.527343-178.144532-254.050781-216.382813zm0 0"/><path d="m177.800781 154.171875c-17.394531-6.175781-35.164062-11.253906-53.199219-15.199219-11.273437-2.511718-22.726562-4.480468-34.289062-6.136718-35.1875 67.484374-35.019531 147.941406.449219 215.277343 35.46875 67.339844 101.722656 112.984375 177.28125 122.136719-75.5625-9.148438-141.824219-54.796875-177.296875-122.144531-35.46875-67.34375-35.628906-147.808594-.433594-215.292969-17.742188-2.585938-35.625-4.136719-53.550781-4.640625-49.53125 89.941406-34.046875 201.746094 38.0625 274.839844 72.109375 73.097656 183.6875 90.101562 274.296875 41.800781-27.609375-17.671875-53.191406-38.328125-76.277344-61.601562-81.921875-82-120.800781-178.960938-95.042969-229.039063zm0 0"/></g><path d="m478.128906 269.796875c14.335938-114.1875-54.429687-222.46875-163.875-258.046875-109.445312-35.574219-228.738281 11.574219-284.285156 112.367188-.246094.351562-.460938.726562-.648438 1.117187-50.683593 92.878906-34.53125 207.992187 39.761719 283.332031 74.289063 75.339844 189.167969 93.105469 282.742188 43.726563.65625-.230469 1.273437-.550781 1.839843-.945313 33.5625-18.160156 62.347657-44.003906 84-75.425781.351563-.394531.65625-.828125.914063-1.285156 21.238281-31.21875 34.761719-67.027344 39.464844-104.488281zm-14.085937-29.785156c0 2.847656-.113281 5.671875-.21875 8.496093-8.4375-9.953124-17.40625-19.785156-26.925781-29.351562-95.199219-95.105469-207.007813-132.394531-254.585938-84.882812-3.074219 3.144531-5.796875 6.613281-8.117188 10.347656-15.695312-5.359375-31.671874-9.851563-47.859374-13.457032-7.734376-1.722656-15.535157-3.199218-23.382813-4.542968 35.089844-60.054688 96.195313-100.292969 165.226563-108.800782 111.863281 14.289063 195.722656 109.417969 195.863281 222.191407zm-31.863281 115.007812c-54.683594-94.265625-140.34375-166.667969-242.402344-204.886719 1.1875-1.59375 2.476562-3.101562 3.863281-4.519531 39.855469-39.808593 146.089844-.929687 231.953125 84.855469 12.851562 12.894531 24.953125 26.515625 36.238281 40.796875-4.148437 29.628906-14.238281 58.113281-29.652343 83.753906zm-164.042969 107.199219c-112.058594-13.996094-196.140625-109.277344-196.09375-222.207031-.101563-34.128907 7.730469-67.816407 22.878906-98.398438 9.382813 1.46875 18.726563 3.125 27.953125 5.183594 14.949219 3.335937 29.714844 7.460937 44.230469 12.359375-20 55.742188 20.503906 150.0625 100.082031 229.71875 20.234375 20.28125 42.324219 38.625 65.972656 54.792969-20.601562 9.453125-42.53125 15.699219-65.023437 18.519531zm-66.398438-442.832031c-49.207031 21.011719-89.953125 57.910156-115.726562 104.800781-11.761719-1.550781-23.609375-2.609375-35.523438-3.265625 33.789063-53.71875 88.746094-90.621094 151.257813-101.566406zm-185.695312 220.625c-.03125-36.085938 8.71875-71.640625 25.488281-103.59375 12.292969.464843 24.574219 1.371093 36.796875 2.824219-27.28125 58.828124-29.578125 126.199218-6.367187 186.746093 23.210937 60.550781 69.953124 109.121094 129.570312 134.640625-107.148438-18.832031-185.335938-111.828125-185.488281-220.617187zm333.414062 195.351562c-25.597656-16.746093-49.375-36.121093-70.953125-57.808593-74.292968-74.34375-114.175781-163.800782-96.238281-213.152344 101.996094 37.679687 187.140625 110.609375 240.046875 205.601562-19.207031 26.855469-44.078125 49.167969-72.855469 65.359375zm0 0" fill="#231f20"/></svg>