<svg height="512pt" viewBox="0 -53 512 511" width="512pt" xmlns="http://www.w3.org/2000/svg"><path d="m53.332031 64.5c-29.417969 0-53.332031 23.9375-53.332031 53.332031v234.667969c0 29.398438 23.914062 53.332031 53.332031 53.332031 5.890625 0 10.667969-4.777343 10.667969-10.664062v-320c0-5.890625-4.777344-10.667969-10.667969-10.667969zm0 0" fill="#cfd8dc"/><path d="m458.667969.5h-362.667969c-29.417969 0-53.332031 23.9375-53.332031 53.332031v341.335938c0 5.886719 4.777343 10.664062 10.664062 10.664062h405.335938c29.417969 0 53.332031-23.933593 53.332031-53.332031v-298.667969c0-29.394531-23.914062-53.332031-53.332031-53.332031zm0 0" fill="#eceff1"/><path d="m266.667969 192.5h-170.667969c-5.886719 0-10.667969 4.777344-10.667969 10.667969v128c0 5.886719 4.78125 10.664062 10.667969 10.664062h170.667969c5.886719 0 10.664062-4.777343 10.664062-10.664062v-128c0-5.890625-4.777343-10.667969-10.664062-10.667969zm0 0" fill="#2196f3"/><path d="m458.667969 405.832031h-405.335938c-5.886719 0-10.664062-4.777343-10.664062-10.664062 0-5.890625 4.777343-10.667969 10.664062-10.667969h405.335938c17.640625 0 32-14.355469 32-32v-298.667969c0-17.640625-14.359375-32-32-32h-362.667969c-17.644531 0-32 14.359375-32 32v298.667969c0 5.886719-4.777344 10.667969-10.667969 10.667969-5.886719 0-10.664062-4.78125-10.664062-10.667969v-298.667969c0-29.417969 23.914062-53.332031 53.332031-53.332031h362.667969c29.417969 0 53.332031 23.914062 53.332031 53.332031v298.667969c0 29.417969-23.914062 53.332031-53.332031 53.332031zm0 0"/><path d="m96 405.832031h-42.667969c-29.417969 0-53.332031-23.914062-53.332031-53.332031v-234.667969c0-29.417969 23.914062-53.332031 53.332031-53.332031 5.890625 0 10.667969 4.777344 10.667969 10.667969 0 5.886719-4.777344 10.664062-10.667969 10.664062-17.640625 0-32 14.359375-32 32v234.667969c0 17.644531 14.359375 32 32 32h42.667969c5.886719 0 10.667969 4.777344 10.667969 10.667969 0 5.886719-4.78125 10.664062-10.667969 10.664062zm0 0"/><path d="m266.667969 341.832031h-170.667969c-5.886719 0-10.667969-4.777343-10.667969-10.664062v-128c0-5.890625 4.78125-10.667969 10.667969-10.667969h170.667969c5.886719 0 10.664062 4.777344 10.664062 10.667969v128c0 5.886719-4.777343 10.664062-10.664062 10.664062zm-160-21.332031h149.332031v-106.667969h-149.332031zm0 0"/><path d="m458.667969 213.832031h-149.335938c-5.886719 0-10.664062-4.777343-10.664062-10.664062 0-5.890625 4.777343-10.667969 10.664062-10.667969h149.335938c5.886719 0 10.664062 4.777344 10.664062 10.667969 0 5.886719-4.777343 10.664062-10.664062 10.664062zm0 0"/><path d="m458.667969 277.832031h-149.335938c-5.886719 0-10.664062-4.777343-10.664062-10.664062 0-5.890625 4.777343-10.667969 10.664062-10.667969h149.335938c5.886719 0 10.664062 4.777344 10.664062 10.667969 0 5.886719-4.777343 10.664062-10.664062 10.664062zm0 0"/><path d="m458.667969 341.832031h-149.335938c-5.886719 0-10.664062-4.777343-10.664062-10.664062 0-5.890625 4.777343-10.667969 10.664062-10.667969h149.335938c5.886719 0 10.664062 4.777344 10.664062 10.667969 0 5.886719-4.777343 10.664062-10.664062 10.664062zm0 0"/><path d="m458.667969 149.832031h-362.667969c-5.886719 0-10.667969-4.777343-10.667969-10.664062 0-5.890625 4.78125-10.667969 10.667969-10.667969h362.667969c5.886719 0 10.664062 4.777344 10.664062 10.667969 0 5.886719-4.777343 10.664062-10.664062 10.664062zm0 0"/><path d="m458.667969 85.832031h-362.667969c-5.886719 0-10.667969-4.777343-10.667969-10.664062 0-5.890625 4.78125-10.667969 10.667969-10.667969h362.667969c5.886719 0 10.664062 4.777344 10.664062 10.667969 0 5.886719-4.777343 10.664062-10.664062 10.664062zm0 0"/></svg>